<svg width="468" height="245" viewBox="0 0 468 245" fill="none" xmlns="http://www.w3.org/2000/svg">
<path d="M112.5 5.7735C118.688 2.20085 126.312 2.20085 132.5 5.7735L218.588 55.4765C224.776 59.0492 228.588 65.6517 228.588 72.797V172.203C228.588 179.348 224.776 185.951 218.588 189.523L132.5 239.227C126.312 242.799 118.688 242.799 112.5 239.227L26.4119 189.523C20.2239 185.951 16.4119 179.348 16.4119 172.203V72.797C16.4119 65.6517 20.2239 59.0492 26.4119 55.4765L112.5 5.7735Z" fill="#1B1B1B"/>
<path d="M112.5 13.7735C118.688 10.2008 126.312 10.2008 132.5 13.7735L211.66 59.4765C217.848 63.0492 221.66 69.6517 221.66 76.797V168.203C221.66 175.348 217.848 181.951 211.66 185.523L132.5 231.227C126.312 234.799 118.688 234.799 112.5 231.227L33.3401 185.523C27.1521 181.951 23.3401 175.348 23.3401 168.203V76.797C23.3401 69.6517 27.1521 63.0492 33.3401 59.4765L112.5 13.7735Z" fill="#212121"/>
<path d="M132.35 83.65V98.28H108.81V161.97H91.54V98.28H68V83.65H132.35Z" fill="#303030"/>
<path d="M174.626 106.97H158.346C157.686 99.1967 152.736 95.31 143.496 95.31C139.536 95.31 136.419 96.1167 134.146 97.73C131.946 99.27 130.846 101.433 130.846 104.22C130.846 105.173 130.993 106.017 131.286 106.75C131.579 107.483 132.129 108.18 132.936 108.84C133.743 109.427 134.549 109.94 135.356 110.38C136.163 110.747 137.336 111.187 138.876 111.7C140.489 112.14 141.919 112.543 143.166 112.91C144.486 113.277 146.319 113.753 148.666 114.34C151.013 114.927 153.066 115.477 154.826 115.99C162.526 118.19 168.246 120.94 171.986 124.24C175.799 127.54 177.706 132.27 177.706 138.43C177.706 142.903 176.789 146.827 174.956 150.2C173.123 153.5 170.629 156.14 167.476 158.12C164.396 160.027 160.986 161.42 157.246 162.3C153.579 163.253 149.656 163.73 145.476 163.73C134.843 163.73 126.519 161.31 120.506 156.47C114.566 151.557 111.559 144.663 111.486 135.79H128.536C128.829 145.617 134.733 150.53 146.246 150.53C150.719 150.53 154.239 149.613 156.806 147.78C159.446 145.873 160.766 143.307 160.766 140.08C160.766 137.367 159.556 135.387 157.136 134.14C154.789 132.893 149.803 131.17 142.176 128.97C141.736 128.897 141.406 128.823 141.186 128.75C140.966 128.677 140.673 128.603 140.306 128.53C139.939 128.383 139.609 128.273 139.316 128.2C136.676 127.467 134.843 126.953 133.816 126.66C132.789 126.293 131.139 125.707 128.866 124.9C126.666 124.093 125.053 123.36 124.026 122.7C122.999 122.04 121.716 121.123 120.176 119.95C118.709 118.777 117.646 117.567 116.986 116.32C116.326 115 115.703 113.423 115.116 111.59C114.603 109.683 114.346 107.63 114.346 105.43C114.346 98.3167 117.096 92.6333 122.596 88.38C128.096 84.1267 135.393 82 144.486 82C153.286 82 160.473 84.09 166.046 88.27C171.619 92.3767 174.479 98.61 174.626 106.97Z" fill="#303030"/>
<path d="M132.35 81.65L122.596 86.38L115.423 96.28H108.81V159.97H91.54V96.28H68V81.65H132.35Z" fill="white"/>
<path d="M174.626 104.97H158.346C157.686 97.1967 152.736 93.31 143.496 93.31C139.536 93.31 136.419 94.1167 134.146 95.73C131.946 97.27 130.846 99.4333 130.846 102.22C130.846 103.173 130.993 104.017 131.286 104.75C131.579 105.483 132.129 106.18 132.936 106.84C133.743 107.427 134.549 107.94 135.356 108.38C136.163 108.747 137.336 109.187 138.876 109.7C140.489 110.14 141.919 110.543 143.166 110.91C144.486 111.277 146.319 111.753 148.666 112.34C151.013 112.927 153.066 113.477 154.826 113.99C162.526 116.19 168.246 118.94 171.986 122.24C175.799 125.54 177.706 130.27 177.706 136.43C177.706 140.903 176.789 144.827 174.956 148.2C173.123 151.5 170.629 154.14 167.476 156.12C164.396 158.027 160.986 159.42 157.246 160.3C153.579 161.253 149.656 161.73 145.476 161.73C134.843 161.73 126.519 159.31 120.506 154.47C114.566 149.557 111.559 142.663 111.486 133.79H128.536C128.829 143.617 134.733 148.53 146.246 148.53C150.719 148.53 154.239 147.613 156.806 145.78C159.446 143.873 160.766 141.307 160.766 138.08C160.766 135.367 159.556 133.387 157.136 132.14C154.789 130.893 149.803 129.17 142.176 126.97C141.736 126.897 141.406 126.823 141.186 126.75C140.966 126.677 140.673 126.603 140.306 126.53C139.939 126.383 139.609 126.273 139.316 126.2C136.676 125.467 134.843 124.953 133.816 124.66C132.789 124.293 131.139 123.707 128.866 122.9C126.666 122.093 125.053 121.36 124.026 120.7C122.999 120.04 121.716 119.123 120.176 117.95C118.709 116.777 117.646 115.567 116.986 114.32C116.326 113 115.703 111.423 115.116 109.59C114.603 107.683 114.346 105.63 114.346 103.43C114.346 96.3167 117.096 90.6333 122.596 86.38C128.096 82.1267 135.393 80 144.486 80C153.286 80 160.473 82.09 166.046 86.27C171.619 90.3767 174.479 96.61 174.626 104.97Z" fill="white"/>
<path d="M293.15 41V54.725H278.15V94.4H261.8V54.725H246.875V41H293.15Z" fill="#212121"/>
<path d="M315.798 41V94.4H299.448V41H315.798Z" fill="#212121"/>
<path d="M386.448 41V94.4H371.073V86.375C371.073 76.925 371.273 66.8 371.673 56L361.623 94.4H349.398L339.273 56C339.623 64.1 339.823 73.475 339.873 84.125L339.948 94.4H324.573V41H348.048L351.498 54.875C353.298 62.325 354.673 69.075 355.623 75.125C356.373 70.825 357.873 63.95 360.123 54.5L363.423 41H386.448Z" fill="#212121"/>
<path d="M439.573 41V53.975H411.448V60.65H436.948V73.025H411.448V80.825H440.323V94.4H395.323V41H439.573Z" fill="#212121"/>
<path d="M290.975 122.05H277.7C277.4 117.7 274.5 115.525 269 115.525C266.8 115.525 265.075 115.95 263.825 116.8C262.575 117.6 261.95 118.7 261.95 120.1C261.95 121.2 262.225 122.05 262.775 122.65C263.375 123.25 264.45 123.75 266 124.15C275.3 126.6 281.575 128.575 284.825 130.075C290.375 132.675 293.15 137 293.15 143.05C293.15 148.4 291.075 152.675 286.925 155.875C282.825 159.025 277.275 160.6 270.275 160.6C262.875 160.6 257.075 158.925 252.875 155.575C248.675 152.225 246.525 147.525 246.425 141.475H260.45C260.45 147.125 264.025 149.95 271.175 149.95C276.475 149.95 279.125 148.15 279.125 144.55C279.125 143.1 278.6 141.975 277.55 141.175C276.55 140.325 274.725 139.55 272.075 138.85C267.025 137.45 262.625 136.05 258.875 134.65C251.925 132.15 248.45 127.725 248.45 121.375C248.45 116.325 250.375 112.325 254.225 109.375C258.125 106.375 263.375 104.875 269.975 104.875C276.625 104.875 281.75 106.35 285.35 109.3C289 112.25 290.875 116.5 290.975 122.05Z" fill="#212121"/>
<path d="M345.874 106V159.4H331.849V137.35H313.774V159.4H299.749V106H313.774V125.05H331.849V106H345.874Z" fill="#212121"/>
<path d="M369.44 106V159.4H355.415V106H369.44Z" fill="#212121"/>
<path d="M418.447 106V117.625H393.022V127.9H415.072V138.85H393.022V159.4H378.997V106H418.447Z" fill="#212121"/>
<path d="M467.297 106V117.85H451.472V159.4H437.372V117.85H421.547V106H467.297Z" fill="#212121"/>
<path d="M275.195 192.115C274.865 196.075 273.44 199.24 270.92 201.61C268.43 203.95 265.265 205.12 261.425 205.12C256.985 205.12 253.43 203.605 250.76 200.575C248.09 197.545 246.755 193.495 246.755 188.425C246.755 183.685 248.075 179.695 250.715 176.455C253.385 173.215 257.045 171.595 261.695 171.595C264.935 171.595 267.83 172.555 270.38 174.475C272.96 176.365 274.43 178.87 274.79 181.99H271.73C271.25 179.62 270.095 177.745 268.265 176.365C266.435 174.955 264.215 174.25 261.605 174.25C258.065 174.25 255.2 175.555 253.01 178.165C250.85 180.745 249.77 184.165 249.77 188.425C249.77 192.685 250.835 196.105 252.965 198.685C255.125 201.235 257.975 202.51 261.515 202.51C264.605 202.51 267.065 201.565 268.895 199.675C270.725 197.755 271.82 195.235 272.18 192.115H275.195Z" fill="#212121"/>
<path d="M325.51 171.595C329.98 171.595 333.61 173.155 336.4 176.275C339.22 179.395 340.63 183.46 340.63 188.47C340.63 193.45 339.235 197.485 336.445 200.575C333.655 203.635 329.995 205.165 325.465 205.165C320.965 205.165 317.335 203.62 314.575 200.53C311.815 197.44 310.435 193.39 310.435 188.38C310.435 183.37 311.815 179.32 314.575 176.23C317.365 173.14 321.01 171.595 325.51 171.595ZM325.465 174.25C321.895 174.25 319 175.54 316.78 178.12C314.59 180.7 313.495 184.09 313.495 188.29C313.495 192.58 314.59 196.03 316.78 198.64C318.97 201.22 321.88 202.51 325.51 202.51C329.14 202.51 332.05 201.22 334.24 198.64C336.46 196.06 337.57 192.655 337.57 188.425C337.57 184.195 336.46 180.775 334.24 178.165C332.02 175.555 329.095 174.25 325.465 174.25Z" fill="#212121"/>
<path d="M377.629 172.36H392.119C395.149 172.36 397.564 173.08 399.364 174.52C401.194 175.93 402.109 178.09 402.109 181C402.109 183.07 401.554 184.795 400.444 186.175C399.364 187.525 397.834 188.44 395.854 188.92C397.804 189.28 399.184 190.03 399.994 191.17C400.834 192.28 401.329 193.945 401.479 196.165C401.479 196.225 401.494 196.63 401.524 197.38C401.554 198.13 401.584 198.775 401.614 199.315C401.674 199.855 401.749 200.5 401.839 201.25C401.959 202 402.109 202.645 402.289 203.185C402.499 203.725 402.739 204.13 403.009 204.4H399.544C399.274 204.07 399.079 203.485 398.959 202.645C398.839 201.805 398.749 200.725 398.689 199.405C398.629 198.085 398.599 197.38 398.599 197.29C398.389 194.38 397.684 192.46 396.484 191.53C395.284 190.57 393.154 190.09 390.094 190.09H380.689V204.4H377.629V172.36ZM380.689 174.97V187.66H389.734C391.054 187.66 392.194 187.585 393.154 187.435C394.114 187.285 395.074 187 396.034 186.58C397.024 186.16 397.774 185.5 398.284 184.6C398.824 183.67 399.094 182.53 399.094 181.18C399.094 177.04 396.439 174.97 391.129 174.97H380.689Z" fill="#212121"/>
<path d="M439.954 172.36H453.679C456.769 172.36 459.214 173.14 461.014 174.7C462.844 176.23 463.759 178.45 463.759 181.36C463.759 184.42 462.844 186.745 461.014 188.335C459.184 189.925 456.709 190.72 453.589 190.72H443.014V204.4H439.954V172.36ZM443.014 174.97V188.155H452.734C455.104 188.155 457.024 187.63 458.494 186.58C459.964 185.5 460.699 183.835 460.699 181.585C460.699 179.365 460.024 177.715 458.674 176.635C457.324 175.525 455.449 174.97 453.049 174.97H443.014Z" fill="#212121"/>
</svg>
