<svg xmlns="http://www.w3.org/2000/svg" viewBox="0 0 326 140" width="326" height="140">
	<style>
		tspan { white-space:pre }
		.shp0 { fill: #000000 } 
	</style>
	<g id="Layer">
		<path id="Layer" class="shp0" d="M167,-156.6c28.8,0.2 30.9,0.4 37.5,2.5c23.3,7.7 41.3,24.3 50.2,46.1c5.6,13.9 5.4,6.4 5.1,182.3l-0.3,162.2l-2.3,7c-4.6,13.4 -9.9,22.3 -19.2,31.5c-12.9,12.9 -24.3,19.4 -39.3,22.6c-11.1,2.2 -65.4,1.6 -74.1,-0.9c-17.9,-5.3 -36.8,-19.9 -46.2,-36c-2,-3.3 -5,-10.2 -6.7,-15.2l-3.2,-9l-0.3,-162.2c-0.3,-175.9 -0.5,-168.4 5.1,-182.3c10,-24.7 32.8,-43.5 58.5,-48c2.6,-0.5 18.4,-0.7 35.2,-0.6zM167,-155.5c-16.2,-0.2 -30.8,-0.1 -32.5,0.2c-12.6,1.9 -27.6,8.4 -36.2,15.5c-12.7,10.5 -23.2,26.3 -27.1,40.8c-1.6,6.1 -1.7,17.5 -1.7,170c0,181.6 -0.5,167.8 6.6,182.9c3.1,6.8 11.1,18.2 15.2,21.8c14.3,12.4 24.8,18.1 38.4,20.8c6.8,1.4 13.2,1.6 38,1.3c29.6,-0.3 29.8,-0.4 37.8,-3.2c11.2,-3.9 17.9,-7.7 26.2,-14.9c12.4,-10.6 20.5,-23.1 25,-38.2c1.7,-5.6 1.8,-16.1 2.1,-167c0.3,-173 0.4,-168 -4.8,-181.7c-4.4,-11.9 -17.4,-28.2 -28.4,-35.8c-5.9,-4 -15.3,-8.3 -23.1,-10.5c-5,-1.5 -11.2,-1.8 -35.5,-2z" />
		<path id="Layer" class="shp0" d="M170.5,12.3c0.9,1.3 2,1.6 3.9,1.1c1.6,-0.4 2.6,-0.2 2.6,0.5c0,0.6 -0.6,1.1 -1.2,1.2c-0.7,0 0.2,0.7 2,1.5c2.6,1.2 3.2,1.9 2.7,3.5c-0.4,1.1 -0.2,2.6 0.5,3.4c0.8,1 0.8,1.5 0,2c-0.7,0.4 -0.9,1.7 -0.6,3c0.5,1.9 0.1,2.4 -2.7,3c-1.7,0.4 -2.6,0.9 -1.9,1.2c2.4,0.9 1.1,2.3 -2,2.1c-2.2,-0.2 -3.2,0.1 -3,0.9c0.3,1.9 -1.5,1.6 -2.6,-0.3c-0.6,-1.1 -1.7,-1.5 -3.1,-1.1c-1.4,0.3 -2.1,0 -2.1,-0.9c0,-0.8 -1.2,-1.9 -2.7,-2.5c-2.5,-1 -2.6,-1.2 -1.1,-2.2c1.5,-1 1.5,-1.2 -0.4,-2.9c-2.1,-1.8 -2.1,-1.9 -0.3,-3.2c1.6,-1.2 1.7,-1.6 0.6,-3c-1.1,-1.3 -1,-1.7 1.3,-2.6c1.4,-0.5 2.5,-1.5 2.4,-2.2c-0.2,-0.9 0.6,-1.2 2.3,-1c1.8,0.2 2.9,-0.3 3.4,-1.5c0.6,-1.7 0.7,-1.7 2,0zM164.9,26.4c1.1,2.8 4.6,3.5 8.2,1.6c2.3,-1.3 2.5,-5.3 0.3,-7.4c-4,-4.1 -10.5,0.4 -8.5,5.8z" />
		<path id="Layer" class="shp0" d="M167.4,22.5c-0.9,2.3 0.3,4.5 2.6,4.5c1.2,0 1.9,-0.4 1.6,-0.9c-0.4,-0.5 0,-1.1 0.6,-1.4c1,-0.3 1,-0.7 -0.1,-2c-1.7,-2.1 -4,-2.2 -4.7,-0.2z" />
		<path id="Layer" class="shp0" d="M154.5,31.5c1.9,0 3.5,0.3 3.5,0.7c0,0.4 0.7,0.8 1.5,0.8c0.8,0 1.5,0.7 1.5,1.5c0,0.8 0.4,1.5 0.8,1.5c0.9,0 0.8,4.7 -0.1,5.7c-0.4,0.3 -0.7,1.5 -0.7,2.6c0,1.3 -0.5,1.7 -1.5,1.3c-0.8,-0.3 -1.8,0 -2.2,0.7c-0.9,1.3 -6.5,1.8 -5.7,0.5c0.3,-0.4 -0.4,-0.8 -1.5,-0.8c-1.4,0 -2.1,-0.6 -2.1,-1.8c0,-1 -0.3,-2.2 -0.7,-2.5c-0.9,-1 -1,-5.7 -0.1,-5.7c0.4,0 0.8,-0.7 0.8,-1.5c0,-0.8 0.7,-1.5 1.5,-1.5c0.8,0 1.5,-0.3 1.5,-0.8c0,-0.4 1.6,-0.7 3.5,-0.7zM154.7,36.2c-2.9,-0.4 -4.1,1.2 -3.5,4.5c0.2,1.3 1.2,1.8 3.3,1.8c2.7,0 3,-0.3 3,-3c0,-2.5 -0.4,-3 -2.8,-3.3z" />
		<path id="Layer" class="shp0" d="M153.3,38.6c-0.9,0.9 -0.8,1.4 0.4,1.8c2.1,0.9 3.5,-0.6 1.9,-2c-0.8,-0.8 -1.5,-0.7 -2.3,0.2z" />
		<path id="Layer" class="shp0" d="M114.7,51.8c-3,0.3 -4,0.9 -4.8,2.8c-1,2.7 -0.3,7 1.3,8c0.5,0.3 4.1,0.9 7.9,1.3c3.8,0.3 7.1,1 7.2,1.6c0.3,1.4 -9.3,1.9 -10.6,0.6c-0.6,-0.6 -2.4,-1.1 -3.9,-1.1c-3.2,0 -3.7,2 -1.2,4.4c1.9,2 18.3,2.3 20.2,0.4c1.6,-1.6 1.5,-8.5 0,-9.4c-0.7,-0.5 -4.4,-1.1 -8.2,-1.4c-8.8,-0.6 -10.5,-3 -2.2,-3c3.1,0 5.6,0.4 5.6,1c0,0.5 1.4,1 3,1c3.2,0 3.9,-1.5 1.8,-4.2c-1.4,-1.6 -9.2,-2.6 -16.1,-2z" />
		<path id="Layer" class="shp0" d="M81,54.5c0,2.3 0.4,2.5 4.5,2.5h4.5v7v7h3h3v-7v-7h4c3.6,0 4,-0.3 4,-2.5v-2.5h-11.5h-11.5z" />
		<path id="Layer" class="shp0" d="M138.2,53.2c-0.7,0.7 -1.2,4.1 -1.2,8.5c0,8.8 0.6,9.3 11.5,9.3c8.8,0 11.5,-1.1 11.5,-4.5c0,-2.1 -0.5,-2.5 -3,-2.5c-1.6,0 -3,0.4 -3,1c0,0.5 -2.4,1 -5.4,1c-5.5,0 -6.5,-0.9 -6.6,-5.7c0,-3.8 8.3,-5.9 11.4,-2.8c0.8,0.8 2.6,1.5 4,1.5c2,0 2.6,-0.5 2.6,-2.3c0,-1.3 -0.5,-2.8 -1.2,-3.5c-1.6,-1.6 -19,-1.6 -20.6,0z" />
		<path id="Layer" class="shp0" d="M177.3,52c6.7,0 10.7,0.4 11.5,1.2c0.7,0.7 1.2,4.1 1.2,8.5c0,8.9 -0.5,9.3 -12.5,9.3c-11.8,0 -12.5,-0.5 -12.5,-8.6c0,-3.6 0.5,-7.4 1,-8.5c1,-1.7 2.2,-1.9 11.3,-1.9zM172.3,56.7c-0.8,0.3 -1.3,2.3 -1.3,4.9v4.4h6.5c3.6,0 6.5,-0.3 6.6,-0.8c0.6,-4.5 0.4,-6.6 -0.8,-7.8c-1.4,-1.3 -8.4,-1.8 -11,-0.7z" />
		<path id="Layer" class="shp0" d="M195,52h10.3c6.7,0 10.7,0.4 11.5,1.2c1.6,1.6 1.5,7 0,8.7c-1,1.1 -1,1.4 0,1.8c0.6,0.3 1.2,2 1.2,3.9c0,3.1 -0.3,3.4 -3,3.4c-2.5,0 -3,-0.4 -3,-2.5c0,-2.4 -0.3,-2.5 -5.5,-2.5c-5.2,0 -5.5,0.1 -5.5,2.5c0,2.1 -0.5,2.5 -3,2.5h-3zM206.6,57c-5,0 -5.6,0.2 -5.6,2.1c0,1.8 0.5,2 5.2,1.7c4.1,-0.2 5.4,-0.7 5.6,-2.1c0.3,-1.4 -0.5,-1.7 -5.2,-1.7z" />
		<path id="Layer" class="shp0" d="M224,52h10.5c11.6,0 12.5,0.5 12.5,7c0,6.1 -1.2,7 -9.5,7c-7.3,0 -7.5,0.1 -7.5,2.5c0,2.1 -0.5,2.5 -3,2.5h-3zM235.5,57c-4.8,0 -5.5,0.2 -5.5,2c0,1.8 0.7,2 5.5,2c4.8,0 5.5,-0.2 5.5,-2c0,-1.8 -0.7,-2 -5.5,-2z" />
		<path id="Layer" class="shp0" d="M112.8,73.2c1.9,0.2 2.7,0.9 2.7,2.3c0,1.4 -0.8,2.1 -2.7,2.3c-2.4,0.3 -2.8,0 -2.8,-2.3c0,-2.3 0.4,-2.6 2.8,-2.3zM111.7,74.7c-1.2,1.1 -0.8,2.3 0.8,2.3c0.8,0 1.5,-0.7 1.5,-1.5c0,-1.6 -1.2,-2 -2.3,-0.8z" />
		<path id="Layer" class="shp0" d="M117,75.5c0,2.1 0.5,2.5 2.8,2.4c2.3,0 2.4,-0.1 0.7,-0.8l-2,-0.8l2,-0.5l2,-0.6l-2,-0.2l-2,-0.1l2,-0.9c1.8,-0.8 1.7,-0.9 -0.7,-0.9c-2.3,-0.1 -2.8,0.3 -2.8,2.4z" />
		<path id="Layer" class="shp0" d="M124,73.7c-0.1,4.1 3.2,5.7 5,2.4c1.3,-2.5 1.3,-3.1 0,-3.1c-0.5,0 -1,0.7 -1,1.5c0,2 -1,1.9 -2.6,-0.3c-0.7,-0.9 -1.4,-1.2 -1.4,-0.5z" />
		<path id="Layer" class="shp0" d="M131,75.5c0,2.1 0.5,2.5 2.8,2.4l2.7,-0.1l-2.5,-0.7l-2.5,-0.8l2.5,-0.5l2.5,-0.5l-2.5,-0.3l-2.5,-0.2l2.5,-0.8l2.5,-0.8l-2.7,-0.1c-2.3,-0.1 -2.8,0.3 -2.8,2.4z" />
		<path id="Layer" class="shp0" d="M137,75.5c0,2.1 0.5,2.5 2.8,2.4c1.6,-0.1 2,-0.3 1,-0.6c-1,-0.2 -1.8,-1.3 -1.8,-2.4c0,-1 -0.4,-1.9 -1,-1.9c-0.5,0 -1,1.1 -1,2.5z" />
		<path id="Layer" class="shp0" d="M146,73c2.5,0 3,0.4 3,2.5c0,2.1 -0.5,2.5 -3,2.5c-2.5,0 -3,-0.4 -3,-2.5c0,-2.1 0.5,-2.5 3,-2.5zM144.5,75c-0.3,0.6 0.1,1.3 1,1.6c1.9,0.8 3,0 2,-1.5c-0.8,-1.4 -2.2,-1.4 -3,-0.1z" />
		<path id="Layer" class="shp0" d="M152.4,73c4.7,0 4.5,3 -0.1,4.5c-2,0.5 -2.3,0.3 -2.3,-1.9c0,-2.1 0.5,-2.6 2.4,-2.6zM153,74c-0.5,0 -1,0.4 -1,1c0,0.5 0.5,1 1,1c0.6,0 1,-0.5 1,-1c0,-0.6 -0.4,-1 -1,-1z" />
		<path id="Layer" class="shp0" d="M157.1,75.7c0,2.5 0.1,2.6 0.9,0.8c0.7,-1.8 0.8,-1.9 1.5,-0.3c0.9,2.2 2.5,2.3 2.5,0.2c0,-0.8 -0.4,-1.3 -0.9,-1c-0.5,0.3 -1.1,-0.1 -1.5,-0.9c-0.9,-2.5 -2.6,-1.7 -2.5,1.2z" />
		<path id="Layer" class="shp0" d="M162.4,74.6c0.3,0.9 0.6,2 0.6,2.5c0,0.5 0.5,0.9 1,0.9c0.6,0 1,-1.1 1,-2.5c0,-1.6 -0.6,-2.5 -1.6,-2.5c-1.1,0 -1.4,0.5 -1,1.6z" />
		<path id="Layer" class="shp0" d="M166,75.5c0,2.1 0.5,2.5 2.8,2.4c2.3,0 2.4,-0.1 0.7,-0.8l-2,-0.8l2,-0.5l2,-0.6l-2,-0.2l-2,-0.1l2,-0.9c1.8,-0.8 1.7,-0.9 -0.7,-0.9c-2.3,-0.1 -2.8,0.3 -2.8,2.4z" />
		<path id="Layer" class="shp0" d="M173.1,75.7c0,2.4 0.2,2.5 0.8,0.9c0.7,-1.8 0.8,-1.8 1.4,-0.3c1,2.7 3.7,2.1 3.7,-0.8c0,-1.4 -0.5,-2.5 -1.1,-2.5c-0.6,0 -0.9,0.7 -0.5,1.5c0.3,0.8 0.1,1.5 -0.3,1.5c-0.5,0 -1.1,-0.7 -1.5,-1.5c-0.9,-2.5 -2.6,-1.7 -2.5,1.2z" />
		<path id="Layer" class="shp0" d="M180.8,73.7c0.6,0.2 1.2,1.3 1.2,2.4c0,1 0.5,1.9 1,1.9c0.6,0 1,-0.9 1,-1.9c0,-1.1 0.6,-2.2 1.3,-2.4c0.6,-0.3 -0.4,-0.5 -2.3,-0.5c-1.9,0 -2.9,0.2 -2.2,0.5z" />
		<path id="Layer" class="shp0" d="M189.6,73.8c0.7,0.4 1.3,1.5 1.5,2.4c0.3,1.5 0.6,1.3 1.6,-0.7c1,-2.3 0.9,-2.5 -1.5,-2.5c-1.5,0 -2.2,0.4 -1.6,0.8z" />
		<path id="Layer" class="shp0" d="M196,75.5c0,2.1 0.5,2.5 2.8,2.4l2.7,-0.1l-2.5,-0.7l-2.5,-0.8l2.5,-0.5l2.5,-0.5l-2.5,-0.3l-2.5,-0.2l2.5,-0.8l2.5,-0.8l-2.7,-0.1c-2.3,-0.1 -2.8,0.3 -2.8,2.4z" />
		<path id="Layer" class="shp0" d="M203.3,74.7c-0.3,1 -0.7,2 -0.9,2.3c-0.1,0.4 1.2,0.6 3.1,0.6c3.1,0 3.2,-0.2 2.2,-2.3c-1.2,-2.7 -3.5,-3 -4.4,-0.6z" />
		<path id="Layer" class="shp0" d="M210.1,75.7c0,2.5 0.1,2.6 0.9,0.8c0.7,-1.8 0.8,-1.9 1.5,-0.3c0.9,2.2 2.5,2.3 2.5,0.2c0,-0.8 -0.4,-1.3 -0.9,-1c-0.5,0.3 -1.1,-0.1 -1.5,-0.9c-0.9,-2.5 -2.6,-1.7 -2.5,1.2z" />
		<path id="Layer" class="shp0" d="M215.3,74.4c0.4,1 0.7,2.2 0.7,2.7c0,0.5 0.5,0.9 1.1,0.9c1.5,0 0.7,-4.3 -1,-4.8c-1,-0.3 -1.2,0 -0.8,1.2z" />
		<path id="Layer" class="shp0" d="M23.4,47.5c-1.3,3.3 0.4,4.5 6,4.5c8.6,0 8.6,-0.1 8.6,10.1v8.9h5h4.9l0.3,-9.3l0.3,-9.2l6.8,-0.3c6.8,-0.3 6.8,-0.3 6.5,-3l-0.3,-2.7l-18.8,-0.3c-16,-0.2 -18.8,0 -19.3,1.3z" />
		<path id="Layer" class="shp0" d="M299.6,47c3.8,1.5 5.3,3.9 5.3,8.5c0,7.7 -3.7,9.5 -19.1,9.5h-9.8v3c0,2.9 -0.1,3 -5,3h-5v-11.9c0,-8.6 0.3,-12.1 1.3,-12.4c2.4,-1 29.6,-0.7 32.3,0.3zM282.8,52c-6.1,0 -7.3,0.9 -6.6,4.7c0.4,2.1 5.5,2.8 13.6,1.8c4.6,-0.6 5.2,-0.9 5.2,-2.9c0,-1.8 -0.7,-2.5 -3.1,-3c-1.7,-0.3 -5.8,-0.6 -9.1,-0.6z" />
		<text id=" " style="transform: matrix(1,0,0,1,99,1)" >
		</text>
	</g>
</svg>