<svg width="481" height="234" viewBox="0 0 481 234" fill="none" xmlns="http://www.w3.org/2000/svg">
<circle cx="118" cy="120" r="112" fill="url(#paint0_linear)"/>
<path d="M80.6887 145.828V89.8466H61V78.1721H114.514V89.8466H94.7787V145.828H80.6887Z" fill="white"/>
<path d="M133.363 126.558C133.674 129.309 135.136 131.543 137.749 133.263C140.33 134.95 143.503 135.794 147.266 135.794C150.999 135.794 154.047 134.982 156.411 133.356C158.744 131.762 159.91 129.715 159.91 127.214C159.91 125.026 159.039 123.26 157.297 121.916C155.555 120.572 152.647 119.447 148.573 118.541L139.801 116.618C127.453 113.961 121.279 107.663 121.279 97.7234C121.279 91.5345 123.69 86.5177 128.511 82.6731C133.301 78.891 139.475 77 147.033 77C154.809 77 161.03 78.8598 165.695 82.5794C170.299 86.2677 172.663 91.1907 172.787 97.3483H159.583C159.366 94.5039 158.106 92.2534 155.804 90.5968C153.534 88.9714 150.626 88.1587 147.08 88.1587C143.596 88.1587 140.797 88.9245 138.682 90.4561C136.536 91.9877 135.462 94.0038 135.462 96.5044C135.462 98.5673 136.333 100.255 138.075 101.568C139.786 102.818 142.585 103.897 146.473 104.803L154.638 106.538C161.387 107.976 166.302 110.226 169.381 113.289C172.46 116.321 174 120.416 174 125.573C174 132.137 171.543 137.342 166.628 141.186C161.714 145.062 155.073 147 146.706 147C138.588 147 132.134 145.187 127.344 141.561C122.523 137.904 120.004 132.903 119.786 126.558H133.363Z" fill="white"/>
<path d="M234 64.3769V115.557C233.592 116.999 233.129 118.442 232.667 119.856C232.648 119.879 232.638 119.908 232.64 119.938C232.64 119.965 232.64 119.965 232.612 119.992C226.879 137.039 217.218 152.498 204.409 165.122C191.601 177.747 176.003 187.183 158.875 192.668C155.964 193.593 153.025 194.41 150.032 195.09C149.997 195.104 149.961 195.113 149.924 195.117C141.472 197.055 132.828 198.032 124.157 198.028H122.987C136.946 196.992 150.401 192.367 162.047 184.601C173.693 176.836 183.135 166.193 189.459 153.705V153.677C194.791 143.175 197.772 131.638 198.195 119.868C198.618 108.097 196.472 96.376 191.907 85.5184C191.309 82.7159 190.601 79.9405 189.785 77.2196C189.459 76.0768 189.078 74.9069 188.697 73.7641C188.479 73.0566 188.234 72.3492 187.989 71.669C187.69 70.8527 187.418 70.0092 187.064 69.1929C186.846 68.6215 186.629 68.0229 186.384 67.4243C185.949 66.336 185.486 65.2204 185.023 64.1048C184.479 62.8804 183.962 61.656 183.364 60.4588C183.037 59.8058 182.738 59.18 182.384 58.5269C182.112 57.9011 181.758 57.2481 181.432 56.6223C181.105 55.9965 180.752 55.3162 180.371 54.6632C179.881 53.6837 179.31 52.7586 178.765 51.8335C178.031 50.5546 177.242 49.303 176.48 48.0514C176.398 48.0242 176.398 47.997 176.371 47.9154C175.555 46.6365 174.711 45.3577 173.813 44.1605C172.97 42.9089 172.072 41.6572 171.12 40.46C170.222 39.2628 169.297 38.0384 168.29 36.8684C168.206 36.8053 168.14 36.7207 168.099 36.6235C167.201 35.5352 166.304 34.474 165.324 33.4401C164.317 32.2973 163.311 31.2089 162.222 30.1206C161.188 29.005 160.127 27.9438 158.984 26.8827C157.978 25.9031 156.916 24.9237 155.801 23.9714L155.638 23.8081C155.066 23.3183 154.495 22.8013 153.923 22.3388C153.325 21.8218 152.726 21.332 152.128 20.8695C150.985 19.9171 149.76 18.9648 148.536 18.0669C147.91 17.5772 147.284 17.0874 146.631 16.6521C145.978 16.2167 145.325 15.7542 144.699 15.2916C144.427 15.1011 144.155 14.9379 143.883 14.7474C142.713 13.9583 141.489 13.1693 140.264 12.4075C138.849 11.5096 137.407 10.666 135.938 9.84977C135.367 9.52326 134.823 9.19678 134.224 8.92469C133.653 8.59818 133.108 8.32603 132.51 8.02673C131.964 7.71315 131.401 7.43153 130.823 7.18325C129.544 6.53023 128.211 5.90442 126.877 5.30582C126.497 5.11535 126.088 4.92494 125.68 4.76169C124.728 4.32634 123.748 3.97262 122.769 3.56448C122.588 3.46846 122.396 3.3953 122.197 3.34676C121.517 3.04745 120.837 2.77539 120.13 2.53051C119.477 2.28563 118.824 2.04072 118.116 1.82305L118.062 1.79581L118.034 1.76866C117.381 1.52378 116.701 1.3061 115.994 1.08843C114.851 0.680292 113.681 0.353798 112.538 7.88814e-05H169.596C178.055 -0.0131703 186.433 1.64274 194.252 4.87295C202.07 8.10316 209.174 12.8441 215.156 18.8244C221.139 24.8046 225.883 31.9066 229.116 39.7232C232.35 47.5399 234.009 55.9178 234 64.3769Z" fill="url(#paint1_linear)"/>
<path d="M233.999 115.557V169.595C234.014 178.056 232.358 186.438 229.126 194.258C225.895 202.078 221.151 209.184 215.168 215.167C209.184 221.15 202.079 225.894 194.259 229.125C186.438 232.357 178.057 234.013 169.595 233.999H100.919C99.4501 233.237 97.9808 232.448 96.5387 231.604H96.5115C96.4843 231.577 96.4843 231.577 96.4571 231.577C71.0393 216.919 52.185 193.1 43.7529 164.996C42.1587 159.688 40.9672 154.267 40.1885 148.78V148.725C39.8076 146.14 39.5083 143.501 39.3178 140.862C44.4266 157.477 54.7283 172.017 68.71 182.345C82.6919 192.673 99.6169 198.247 117 198.246C119.041 198.246 121.027 198.192 122.986 198.028H124.156C132.827 198.032 141.471 197.055 149.923 195.117C149.96 195.113 149.997 195.103 150.032 195.09C153.025 194.41 155.964 193.593 158.875 192.668C176.003 187.183 191.6 177.747 204.409 165.122C217.218 152.498 226.878 137.038 232.612 119.992C232.639 119.965 232.639 119.965 232.639 119.938C232.638 119.908 232.647 119.879 232.666 119.856C233.129 118.442 233.586 116.999 233.999 115.557Z" fill="url(#paint2_linear)"/>
<path d="M100.919 233.999H64.4041C47.3233 233.998 30.9423 227.213 18.8643 215.135C6.78638 203.057 0.000721576 186.676 0 169.595V114.143C1.08837 111.34 2.28559 108.565 3.59164 105.871L3.64603 105.817C4.35347 104.347 5.08812 102.905 5.87718 101.49C6.33974 100.62 6.82956 99.7491 7.29211 98.8784C8.27164 97.2458 9.22396 95.6405 10.2579 94.0624C11.2374 92.5387 12.2169 91.0422 13.2781 89.5457C14.3392 88.0491 15.4548 86.6071 16.5704 85.165C17.686 83.7229 18.856 82.3352 20.026 80.9748C21.196 79.6143 22.4204 78.2538 23.6992 76.9206C24.9781 75.5873 26.2297 74.3085 27.5629 73.0569C30.175 70.5537 32.9231 68.1592 35.7801 65.9009C38.5826 63.6697 41.494 61.6018 44.487 59.6428C44.5654 59.5916 44.6473 59.5462 44.7319 59.5067C46.2284 58.5272 47.7793 57.6021 49.303 56.677C49.3928 56.6481 49.4761 56.6019 49.5479 56.5409L51.7518 55.3165C53.6565 54.2826 55.5611 53.303 57.5202 52.3779C58.4453 51.9154 59.3976 51.5072 60.3499 51.0719C61.5199 50.5549 62.7171 50.0379 63.8871 49.5754C65.0027 49.14 66.1455 48.7047 67.2883 48.2693L67.3427 48.2421C68.0501 47.9972 68.7848 47.7252 69.4922 47.4803C70.499 47.1538 71.5601 46.8 72.5941 46.5007C73.3167 46.2368 74.0525 46.0099 74.798 45.8205C76.5938 45.3035 78.4168 44.8138 80.2398 44.4056C80.1182 44.5118 79.9912 44.6119 79.8589 44.7049C62.9032 53.4399 49.5547 67.8537 42.1446 85.4289C34.7344 103.004 33.7339 122.624 39.3172 140.862C39.5077 143.501 39.807 146.141 40.1879 148.726V148.78C40.9667 154.268 42.1582 159.688 43.7523 164.997C52.1856 193.096 71.0374 216.91 96.4511 231.567C96.4783 231.567 96.4783 231.567 96.5055 231.594H96.5327C97.9802 232.448 99.4441 233.237 100.919 233.999Z" fill="url(#paint3_linear)"/>
<path d="M191.825 85.2191C191.253 82.5254 190.573 79.8317 189.784 77.2196C189.539 76.3489 189.24 75.4238 188.94 74.5531C188.832 74.1722 188.75 73.9001 188.696 73.7641C188.478 73.0566 188.233 72.3492 187.988 71.669C187.689 70.8527 187.417 70.0092 187.063 69.1929C186.845 68.6215 186.628 68.0229 186.383 67.4243C185.947 66.336 185.485 65.2204 185.022 64.1048C184.478 62.8804 183.934 61.656 183.363 60.4588C183.036 59.8058 182.737 59.18 182.383 58.5269C182.084 57.9011 181.757 57.2481 181.431 56.6223C181.104 55.9965 180.751 55.3162 180.37 54.6632C179.88 53.6837 179.308 52.7586 178.764 51.8335C178.03 50.5546 177.241 49.303 176.479 48.0514C176.397 48.0242 176.397 47.997 176.37 47.9154C175.526 46.6365 174.683 45.3849 173.812 44.1605C172.942 42.9361 172.044 41.6845 171.118 40.46C170.193 39.2356 169.268 38.0656 168.289 36.8684C168.205 36.805 168.139 36.7207 168.098 36.6235C167.173 35.5352 166.275 34.474 165.323 33.4401C164.289 32.2973 163.282 31.2089 162.221 30.1206C161.16 29.0322 160.126 27.9438 158.983 26.8826C157.976 25.903 156.915 24.9236 155.8 23.9713L155.636 23.808C155.065 23.3183 154.494 22.8013 153.922 22.3387L152.126 20.8694C150.984 19.9171 149.759 18.9647 148.535 18.0668C147.909 17.6043 147.256 17.1418 146.63 16.652C146.004 16.1622 145.324 15.7541 144.698 15.2916C144.426 15.1011 144.154 14.9378 143.882 14.7473C142.712 13.9583 141.488 13.1692 140.263 12.4074C138.848 11.5095 137.406 10.666 135.937 9.84972C135.366 9.52321 134.821 9.1967 134.223 8.92461C133.651 8.5981 133.107 8.32595 132.509 8.02665C131.963 7.71307 131.4 7.43145 130.822 7.18317C129.543 6.53015 128.237 5.90434 126.876 5.30573C126.495 5.11527 126.087 4.92486 125.679 4.76161C124.7 4.32626 123.747 3.91812 122.768 3.5644C122.587 3.46838 122.395 3.39521 122.196 3.34667C121.516 3.04737 120.836 2.77531 120.128 2.53043C119.475 2.28555 118.822 2.04064 118.115 1.82297L118.061 1.79573L118.033 1.76858C117.38 1.5237 116.7 1.30602 115.993 1.08835C114.85 0.680213 113.68 0.353719 112.537 9.2042e-07H64.3769C55.9225 -0.00142877 47.5505 1.66272 39.7393 4.89746C31.9281 8.1322 24.8306 12.8741 18.8524 18.8524C12.8741 24.8306 8.13228 31.9281 4.89754 39.7393C1.6628 47.5505 -0.00142877 55.9222 9.20375e-07 64.3769V114.142C1.11558 111.286 2.34001 108.483 3.67327 105.762C5.22419 102.551 6.93834 99.4495 8.76135 96.4293C9.22391 95.6402 9.74094 94.8512 10.2579 94.0621C11.2374 92.5384 12.2169 91.0419 13.2781 89.5454C14.3393 88.0489 15.4004 86.6068 16.5704 85.1647C17.6588 83.7498 18.8016 82.335 20.026 80.9745C21.2504 79.614 22.4204 78.2264 23.6992 76.9203C24.9237 75.5871 26.2297 74.281 27.5629 73.0566C30.1801 70.5346 32.9226 68.1465 35.7801 65.9006C38.5638 63.6836 41.4608 61.613 44.4598 59.6969C44.5439 59.6243 44.635 59.5606 44.7319 59.5065C46.174 58.5541 47.616 57.6562 49.1126 56.7855C53.8663 54.0461 58.8028 51.637 63.8871 49.5751C65.0027 49.1398 66.1455 48.7044 67.2883 48.2691L67.3427 48.2419C68.0501 47.997 68.7848 47.7249 69.4922 47.48C69.6136 47.4563 69.7322 47.4199 69.8459 47.3712C70.7711 47.0447 71.6962 46.7726 72.5941 46.5005C73.3167 46.2365 74.0525 46.0096 74.798 45.8202C76.5938 45.3033 78.4168 44.8135 80.2398 44.4054C80.1038 44.487 79.995 44.623 79.8589 44.7047C80.1582 44.5414 80.4303 44.4326 80.7024 44.2693H80.784C92.0184 38.6199 104.424 35.693 116.999 35.7256C137.553 35.7022 157.347 43.4936 172.37 57.5202C172.452 57.6018 172.533 57.6562 172.561 57.7379C177.211 62.0892 181.33 66.9754 184.832 72.2948L184.859 72.322C185.458 73.2471 186.056 74.1722 186.628 75.1245C188.635 78.4576 190.399 81.9314 191.906 85.5184C191.872 85.4207 191.845 85.3206 191.825 85.2191Z" fill="url(#paint4_linear)"/>
<g style="mix-blend-mode:multiply" opacity="0.08">
<g style="mix-blend-mode:multiply" opacity="0.08">
<path d="M233.999 66.8532V115.558C227.116 139.36 212.677 160.277 192.863 175.154C173.049 190.031 148.933 198.059 124.156 198.029H122.986C136.945 196.992 150.4 192.367 162.046 184.601C173.692 176.836 183.135 166.193 189.458 153.705C189.485 153.678 189.458 153.678 189.458 153.678C206.328 134.332 222.517 106.606 233.999 66.8532Z" fill="black"/>
</g>
</g>
<g style="mix-blend-mode:multiply" opacity="0.08">
<g style="mix-blend-mode:multiply" opacity="0.08">
<path d="M132.618 233.999H100.919C83.546 225.035 68.7608 211.767 57.9762 195.461C47.1913 179.156 40.7675 160.358 39.3178 140.862C43.4762 154.404 51.1127 166.619 61.4661 176.288C79.5602 201.575 104.141 221.513 132.618 233.999Z" fill="black"/>
</g>
</g>
<g style="mix-blend-mode:multiply" opacity="0.08">
<g style="mix-blend-mode:multiply" opacity="0.08">
<path d="M80.2399 44.4056C80.1182 44.5118 79.9912 44.6119 79.8589 44.7049C71.2638 49.1477 63.5253 55.0806 57.0032 62.2276C39.9703 77.0022 18.7743 100.701 0 137.379V114.143C1.67588 109.799 3.63931 105.573 5.87718 101.49C6.33974 100.62 6.82956 99.7491 7.29211 98.8784C8.27164 97.2458 9.22396 95.6405 10.2579 94.0624C11.2374 92.5387 12.2169 91.0422 13.2781 89.5456C14.3392 88.0491 15.4548 86.6071 16.5704 85.165C17.686 83.7229 18.856 82.3352 20.026 80.9748C21.196 79.6143 22.4204 78.2538 23.6992 76.9206C24.9781 75.5873 26.2297 74.3085 27.5629 73.0569C30.175 70.5536 32.9231 68.1592 35.7801 65.9009C38.5826 63.6697 41.494 61.6018 44.487 59.6428C44.5654 59.5916 44.6473 59.5462 44.7319 59.5067C46.2284 58.5272 47.7793 57.6021 49.303 56.677C49.3928 56.6481 49.4761 56.6019 49.5479 56.5409L51.7519 55.3165C53.6565 54.2826 55.5611 53.303 57.5202 52.3779C58.4453 51.9154 59.3976 51.5072 60.35 51.0719C61.5199 50.5549 62.7171 50.0379 63.8871 49.5754C65.7374 48.8407 67.6148 48.1333 69.4922 47.4803C70.499 47.1538 71.5601 46.8 72.5941 46.5007C73.3168 46.2368 74.0525 46.0099 74.798 45.8205C76.5884 45.3035 78.4168 44.8138 80.2399 44.4056Z" fill="black"/>
</g>
</g>
<g style="mix-blend-mode:multiply" opacity="0.08">
<g style="mix-blend-mode:multiply" opacity="0.08">
<path d="M191.906 85.5184C190.399 81.9314 188.635 78.4576 186.627 75.1245C186.16 74.1186 185.566 73.1766 184.859 72.322L184.832 72.2948C181.33 66.9754 177.211 62.0892 172.56 57.7379C172.533 57.6562 172.451 57.6018 172.37 57.5202C154.548 38.7459 121.924 14.829 64.4038 0H112.537C113.68 0.353719 114.85 0.680213 115.992 1.08835C116.7 1.30602 117.38 1.5237 118.033 1.76858C118.06 1.76858 118.088 1.82297 118.115 1.82297C118.822 2.04064 119.475 2.28555 120.128 2.53043C120.836 2.77531 121.516 3.04737 122.196 3.34667C122.395 3.39521 122.587 3.46838 122.768 3.5644C123.747 3.91812 124.699 4.32626 125.679 4.76161C126.087 4.92486 126.495 5.11527 126.876 5.30573C128.237 5.90434 129.543 6.53015 130.821 7.18317C131.4 7.43145 131.963 7.71307 132.508 8.02665C133.107 8.32595 133.651 8.5981 134.223 8.92461C134.821 9.1967 135.365 9.52321 135.937 9.84972C137.406 10.666 138.848 11.5095 140.263 12.4074C141.487 13.1692 142.712 13.9583 143.882 14.7473C144.154 14.9378 144.426 15.1011 144.698 15.2916C145.324 15.7541 145.977 16.1895 146.63 16.652C147.283 17.1146 147.909 17.6043 148.535 18.0668C149.759 18.9647 150.983 19.9171 152.126 20.8694L153.922 22.3387C154.493 22.8013 155.065 23.3183 155.636 23.808L155.799 23.9713C156.915 24.9236 157.976 25.903 158.983 26.8826C160.126 27.9438 161.187 29.005 162.221 30.1206C163.255 31.2361 164.289 32.2973 165.323 33.4401C166.275 34.474 167.173 35.5352 168.098 36.6235C168.139 36.7207 168.204 36.805 168.288 36.8684C169.268 38.0656 170.193 39.2628 171.118 40.46C172.043 41.6572 172.941 42.9089 173.812 44.1605C174.683 45.4121 175.526 46.6365 176.37 47.9154C176.397 47.997 176.397 48.0242 176.478 48.0514C177.24 49.303 178.029 50.5546 178.764 51.8335C179.308 52.7586 179.88 53.6837 180.369 54.6632C180.75 55.3162 181.077 55.9693 181.43 56.6223C181.784 57.2753 182.084 57.9011 182.383 58.5269C182.737 59.18 183.036 59.8058 183.362 60.4588C183.934 61.656 184.478 62.8804 185.022 64.1048C185.485 65.2204 185.947 66.336 186.383 67.4243C186.627 68.0229 186.845 68.6215 187.063 69.1929C187.417 70.0092 187.689 70.8527 187.988 71.669C188.233 72.3492 188.478 73.0566 188.695 73.7641C188.75 73.9001 188.831 74.1722 188.94 74.5531C189.103 75.1517 189.348 76.0496 189.62 77.0564C190.41 79.995 191.471 83.9403 191.824 85.2191C191.845 85.3206 191.872 85.4207 191.906 85.5184Z" fill="black"/>
</g>
</g>
<g style="mix-blend-mode:multiply" opacity="0.25">
<g style="mix-blend-mode:multiply" opacity="0.25">
<path d="M96.5096 231.604C96.4824 231.577 96.4824 231.577 96.4552 231.577C71.0374 216.919 52.1831 193.1 43.751 164.996C42.1568 159.688 40.9653 154.267 40.1866 148.779C40.2954 149.079 40.7036 150.602 41.4382 153.024C42.2273 155.745 43.4517 159.609 45.1114 164.098C46.0094 166.357 46.9073 168.778 47.9956 171.281C48.5126 172.56 49.1112 173.839 49.737 175.145C50.3628 176.451 50.9342 177.757 51.6144 179.09C52.9205 181.784 54.4442 184.451 55.9951 187.144C57.546 189.838 59.2602 192.532 61.056 195.117C62.7974 197.756 64.6748 200.314 66.6067 202.762C68.5385 205.211 70.4976 207.578 72.5111 209.782C74.5246 211.986 76.4564 214.081 78.4155 216.013C80.3745 217.945 82.1975 219.687 84.0478 221.319C85.898 222.952 87.4761 224.367 89.0271 225.645C90.578 226.924 91.884 227.958 92.9996 228.856C95.0893 230.478 96.3735 231.468 96.5096 231.604Z" fill="black"/>
</g>
</g>
<g style="mix-blend-mode:multiply" opacity="0.25">
<g style="mix-blend-mode:multiply" opacity="0.25">
<path d="M232.61 119.993C226.877 137.039 217.216 152.498 204.408 165.123C191.599 177.747 176.001 187.183 158.873 192.668C155.962 193.594 153.023 194.41 150.03 195.09C150.411 194.9 152.044 194.247 154.629 193.267C156.071 192.668 158.057 192.097 159.935 191.199C161.948 190.247 164.37 189.349 166.737 188.124C167.934 187.526 169.186 186.9 170.492 186.274C171.771 185.567 173.076 184.832 174.437 184.098C175.838 183.371 177.2 182.572 178.518 181.703C179.879 180.832 181.321 180.043 182.709 179.091C184.096 178.139 185.511 177.186 186.926 176.207C188.341 175.227 189.674 174.112 191.089 173.078C192.504 172.044 193.864 170.901 195.225 169.758C196.585 168.616 197.973 167.5 199.225 166.221C200.531 164.997 201.891 163.854 203.143 162.602C204.394 161.351 205.619 160.045 206.843 158.793C209.129 156.127 211.55 153.65 213.564 150.957C215.713 148.399 217.536 145.705 219.386 143.229C220.23 141.951 221.047 140.672 221.836 139.475C222.65 138.326 223.403 137.137 224.094 135.91C225.454 133.57 226.76 131.448 227.767 129.489C228.774 127.53 229.78 125.843 230.406 124.373C231.549 122.006 232.365 120.455 232.61 119.993Z" fill="black"/>
</g>
</g>
<g style="mix-blend-mode:multiply" opacity="0.25">
<g style="mix-blend-mode:multiply" opacity="0.25">
<path d="M67.288 48.2691L61.7371 51.4254C59.8596 52.4321 58.0641 53.5749 56.2411 54.6632C54.4181 55.7516 52.6495 56.9216 50.8809 58.0372L50.2007 58.4725L49.6293 58.8807L48.2957 59.8058L46.99 60.7309L46.3367 61.1934L46.0377 61.4111C46.0649 61.3839 46.0918 61.3567 46.0918 61.3295L45.8197 61.5744L39.616 66.336L38.0654 67.506L37.657 67.7781L37.5212 67.8869H37.4937V67.9141L37.4668 67.9413L37.3851 67.9957L36.7318 68.5671L33.8207 71.1792C32.8412 72.0499 31.8889 72.9206 30.8821 73.7369L29.4126 75.0157L28.1337 76.2401L25.4402 78.9066C24.5695 79.8589 23.6444 80.7841 22.7465 81.7092L22.0663 82.4166L21.9302 82.5526L21.903 82.5799H21.8758L21.8486 82.6343L21.7942 82.6615L21.4949 83.0424L20.1888 84.5117L18.91 85.9538L18.3114 86.6068L17.6856 87.3415L15.1551 90.3345L12.8152 93.3275L11.5907 94.8512L10.4479 96.3749C9.68603 97.2456 8.95146 98.47 8.21682 99.504C6.74752 101.626 5.22373 103.749 3.64559 105.816C4.35303 104.347 5.08771 102.905 5.87677 101.49C6.33933 100.62 6.82915 99.7488 7.2917 98.8782C8.27124 97.2456 9.22356 95.6403 10.2575 94.0621C11.237 92.5384 12.2165 91.0419 13.2777 89.5454C14.3388 88.0489 15.4544 86.6068 16.57 85.1647C17.6855 83.7226 18.8556 82.335 20.0256 80.9745C21.1956 79.6141 22.42 78.2536 23.6988 76.9204C24.9777 75.5871 26.2292 74.3083 27.5626 73.0566C30.1747 70.5534 32.9228 68.159 35.7798 65.9006C38.5823 63.6695 41.4937 61.6016 44.4867 59.6425C44.5648 59.5914 44.6467 59.5459 44.7313 59.5065C46.2281 58.527 47.7788 57.6018 49.3025 56.6767C49.3923 56.6479 49.4758 56.6016 49.5476 56.5407L51.7516 55.3163C53.6562 54.2823 55.5609 53.3028 57.5199 52.3777C58.445 51.9151 59.3973 51.507 60.3497 51.0716C61.5197 50.5547 62.7169 50.0377 63.8869 49.5751C65.0024 49.1398 66.1452 48.7044 67.288 48.2691Z" fill="black"/>
</g>
</g>
<g style="mix-blend-mode:multiply" opacity="0.25">
<g style="mix-blend-mode:multiply" opacity="0.25">
<path d="M186.383 67.4243C185.458 65.819 184.588 64.2681 183.635 62.6899L182.928 61.5199C182.683 61.0846 182.52 60.7853 182.248 60.3772L180.805 58.0644L179.363 55.806L177.84 53.5204L175.064 49.4663L175.01 49.4119C174.904 49.306 174.813 49.1874 174.738 49.0581C174.735 49.0375 174.725 49.0184 174.711 49.0037V48.9765L172.67 46.3372C172.316 45.8747 172.017 45.4393 171.636 45.004L170.575 43.6707L169.514 42.3103L169.051 41.7389L168.507 41.0586L166.493 38.6642L166.439 38.6098C166.392 38.5486 166.337 38.4936 166.276 38.4466C166.189 38.3511 166.107 38.2512 166.031 38.1473C165.079 37.1405 164.181 36.0794 163.283 35.0998L160.29 31.9708L157.128 28.8581L153.999 25.9467L153.917 25.8651V25.8379H153.89C153.101 25.1305 152.312 24.423 151.469 23.7155L150.244 22.736L148.993 21.7021L146.489 19.6341L145.21 18.6274L143.959 17.6752C143.496 17.3487 143.143 17.0765 142.653 16.75L141.401 15.8521L140.068 14.8998L139.415 14.41C139.333 14.3556 139.143 14.2468 139.143 14.2195L138.789 14.0019L136.068 12.1789L133.429 10.4647L133.347 10.4375C132.504 9.89334 131.66 9.34916 130.735 8.83218L128.014 7.22679L125.293 5.64868L122.518 4.15221L122.436 4.09773L122.028 3.88011L121.974 3.85288C120.722 3.19986 119.416 2.4652 118.11 1.81218C118.818 2.02985 119.471 2.27476 120.124 2.51964C120.831 2.76454 121.511 3.03658 122.191 3.33588C122.39 3.38442 122.582 3.45758 122.763 3.5536C123.742 3.90732 124.695 4.31546 125.674 4.75081C126.082 4.91406 126.491 5.10447 126.871 5.29494C128.232 5.89354 129.538 6.51938 130.817 7.1724C131.395 7.42065 131.958 7.7023 132.504 8.01585C133.102 8.31516 133.647 8.5873 134.218 8.91381C134.817 9.1859 135.361 9.51241 135.932 9.83892C137.401 10.6552 138.844 11.4987 140.258 12.3966C141.483 13.1584 142.707 13.9475 143.877 14.7365C144.149 14.927 144.421 15.0903 144.693 15.2808C145.319 15.7433 145.972 16.1787 146.625 16.6412C147.278 17.1038 147.904 17.5935 148.53 18.0561C149.754 18.954 150.979 19.9063 152.122 20.8586L153.917 22.3279C154.489 22.7905 155.06 23.3075 155.632 23.7972L155.795 23.9605C156.91 24.9128 157.972 25.8923 158.978 26.8718C160.121 27.9329 161.182 28.9941 162.216 30.1097C163.25 31.2253 164.284 32.2864 165.318 33.4292C166.27 34.4631 167.168 35.5243 168.093 36.6127C168.134 36.7098 168.2 36.7944 168.284 36.8575C169.263 38.0548 170.188 39.252 171.114 40.4492C172.039 41.6464 172.937 42.898 173.807 44.1496C174.678 45.4012 175.521 46.6256 176.365 47.9045C176.392 47.9861 176.392 48.0133 176.474 48.0405C177.236 49.2921 178.025 50.5438 178.759 51.8226C179.304 52.7477 179.875 53.6728 180.365 54.6524C180.746 55.3054 181.072 55.9584 181.426 56.6114C181.78 57.2644 182.079 57.8902 182.378 58.5161C182.732 59.1691 183.031 59.7949 183.358 60.4479C183.929 61.6451 184.473 62.8695 185.017 64.0939C185.485 65.2204 185.948 66.336 186.383 67.4243Z" fill="black"/>
</g>
</g>
<g style="mix-blend-mode:screen" opacity="0.4">
<g style="mix-blend-mode:screen" opacity="0.4">
<path d="M96.45 231.566C96.1235 231.43 94.6542 230.832 92.423 229.743C91.117 229.118 89.5661 228.356 87.8247 227.349C86.0833 226.342 84.1242 225.145 82.138 223.757C79.9155 222.294 77.772 220.713 75.7166 219.023C73.3946 217.151 71.1694 215.163 69.0504 213.064C66.7523 210.848 64.5812 208.505 62.5474 206.044C60.4523 203.541 58.4388 200.902 56.5613 198.181C54.7111 195.405 52.9697 192.576 51.4188 189.719C50.6088 188.316 49.8731 186.872 49.2149 185.392C48.5074 183.95 47.8544 182.508 47.2558 181.093C46.0736 178.351 45.047 175.544 44.1812 172.686C43.2833 169.992 42.6847 167.38 42.1133 164.986C41.2309 161.109 40.6486 157.17 40.3719 153.204C40.1814 150.673 40.1814 149.095 40.1814 148.769C40.9599 154.256 42.1514 159.677 43.7458 164.986C52.1777 193.09 71.032 216.908 96.45 231.566Z" fill="white"/>
</g>
</g>
<g style="mix-blend-mode:screen" opacity="0.4">
<g style="mix-blend-mode:screen" opacity="0.4">
<path d="M232.61 119.993C232.529 120.428 232.12 122.142 231.44 124.782C231.059 126.36 230.406 128.21 229.672 130.332C228.861 132.72 227.925 135.063 226.869 137.352C225.808 139.937 224.312 142.549 222.842 145.379C219.348 151.397 215.294 157.073 210.734 162.33C209.455 163.663 208.203 165.024 206.925 166.357C205.646 167.69 204.231 168.969 202.898 170.248C201.564 171.527 200.068 172.697 198.626 173.867C197.184 175.037 195.769 176.234 194.245 177.268C191.349 179.406 188.332 181.377 185.212 183.172C182.312 184.848 179.324 186.365 176.26 187.716C174.764 188.342 173.376 189.022 171.988 189.567C170.546 190.056 169.186 190.546 167.852 191.009C165.488 191.849 163.081 192.567 160.642 193.158C158.751 193.647 156.834 194.029 154.901 194.301C152.18 194.764 150.466 195.036 150.03 195.09C153.023 194.41 155.962 193.594 158.873 192.668C176.001 187.183 191.599 177.747 204.408 165.123C217.216 152.498 226.877 137.039 232.61 119.993Z" fill="white"/>
</g>
</g>
<g style="mix-blend-mode:screen" opacity="0.4">
<g style="mix-blend-mode:screen" opacity="0.4">
<path d="M37.3859 67.9969C37.4135 67.9417 37.4687 67.9417 37.4687 67.9141V67.9417L37.3859 67.9969Z" fill="white"/>
</g>
</g>
<g style="mix-blend-mode:screen" opacity="0.4">
<g style="mix-blend-mode:screen" opacity="0.4">
<path d="M67.2891 48.2691C66.1463 48.7044 65.0035 49.1398 63.8879 49.5751C58.8036 51.637 53.8671 54.0461 49.1134 56.7856C47.6169 57.6563 46.1748 58.5542 44.7327 59.5065C44.6358 59.5606 44.5447 59.6243 44.4606 59.6969C41.4616 61.613 38.5646 63.6836 35.7809 65.9006C32.9234 68.1465 30.181 70.5346 27.5637 73.0566C26.2305 74.2811 24.9245 75.5871 23.7001 76.9203C22.4213 78.2264 21.224 79.5868 20.0268 80.9745C18.8296 82.3622 17.6596 83.7498 16.5712 85.1647C15.4012 86.6068 14.3129 88.0761 13.2789 89.5454C12.245 91.0147 11.2383 92.5384 10.2587 94.0621C9.74175 94.8512 9.22475 95.6403 8.76219 96.4293C6.93918 99.4495 5.225 102.551 3.67408 105.762C3.64687 105.789 3.61966 105.844 3.59245 105.871C4.49035 103.395 5.44265 100.946 6.44939 98.5516C7.02078 97.3272 7.37453 96.1844 8.08196 94.9056L9.03429 93.1098L9.98663 91.4228C10.6397 90.2256 11.1838 89.2189 12.0001 87.9401L14.1769 84.7022L14.721 83.8859L15.3468 83.0152L17.7412 79.9134L18.0405 79.5324L18.4215 79.0699L19.0473 78.308C19.8907 77.3285 20.7071 76.3217 21.5778 75.3422L24.3803 72.4853L25.0605 71.7778L25.5775 71.2608L25.904 70.9615L27.346 69.6555C28.2984 68.7848 29.3051 67.9413 30.3118 67.0978L33.2776 64.5674L34.0123 63.9416L34.2844 63.7239L34.3932 63.6695L34.5837 63.5062L34.9918 63.2341L36.5972 62.1186L43.1001 57.8195L42.8281 58.0644C43.064 57.859 43.3192 57.6767 43.5899 57.5202L43.9164 57.3025L44.6239 56.9216L46.0387 56.1597L47.4536 55.3979L48.2155 54.9898L48.9501 54.6088C50.9092 53.6293 52.8954 52.813 54.9089 51.9967C56.9224 51.1805 58.9903 50.5002 61.0582 49.82C63.0989 49.1942 65.2212 48.7044 67.2891 48.2691Z" fill="white"/>
</g>
</g>
<g style="mix-blend-mode:screen" opacity="0.4">
<g style="mix-blend-mode:screen" opacity="0.4">
<path d="M165.622 37.2491L166.167 38.283L166.031 38.147C165.843 37.8743 165.704 37.5704 165.622 37.2491Z" fill="white"/>
</g>
</g>
<g style="mix-blend-mode:screen" opacity="0.4">
<g style="mix-blend-mode:screen" opacity="0.4">
<path d="M174.492 48.5414L174.601 48.8135C174.556 48.7267 174.519 48.6356 174.492 48.5414Z" fill="white"/>
</g>
</g>
<g style="mix-blend-mode:screen" opacity="0.4">
<g style="mix-blend-mode:screen" opacity="0.4">
<path d="M174.766 49.0581L175.854 49.9288C175.709 49.8858 175.572 49.8219 175.446 49.7384C175.305 49.6693 175.176 49.5773 175.065 49.4663L175.011 49.4119L174.766 49.0581Z" fill="white"/>
</g>
</g>
<g style="mix-blend-mode:screen" opacity="0.4">
<g style="mix-blend-mode:screen" opacity="0.4">
<path d="M186.383 67.4241C185.948 66.3357 185.485 65.2201 185.023 64.1045C184.478 62.8801 183.961 61.6557 183.363 60.4585C183.036 59.8055 182.737 59.1797 182.384 58.5267C182.112 57.9009 181.758 57.2478 181.431 56.622C181.105 55.9962 180.751 55.316 180.37 54.663C179.88 53.6834 179.309 52.7583 178.765 51.8332C178.03 50.5544 177.241 49.3028 176.479 48.0511C176.397 48.0239 176.397 47.9967 176.37 47.9151C175.554 46.6363 174.71 45.3574 173.812 44.1602C172.969 42.9086 172.071 41.657 171.119 40.4598C170.221 39.2626 169.296 38.0382 168.289 36.8682C168.205 36.805 168.139 36.7204 168.099 36.6233C167.201 35.5349 166.303 34.4738 165.323 33.4398C164.316 32.297 163.31 31.2087 162.221 30.1203C161.187 29.0047 160.126 27.9436 158.983 26.8824C157.977 25.9029 156.916 24.9235 155.8 23.9711L155.637 23.8079C155.065 23.3181 154.494 22.8011 153.923 22.3386C153.324 21.8216 152.726 21.3318 152.127 20.8692C150.984 19.9169 149.76 18.9646 148.535 18.0667C147.909 17.5769 147.284 17.0872 146.631 16.6518C145.977 16.2165 145.324 15.7539 144.699 15.2914C144.427 15.1009 144.154 14.9376 143.882 14.7472C142.712 13.9581 141.488 13.1691 140.264 12.4072C138.849 11.5093 137.407 10.6658 135.937 9.84954C135.366 9.52303 134.822 9.19655 134.223 8.92446C133.652 8.59795 133.108 8.3258 132.509 8.0265C131.963 7.71291 131.4 7.4313 130.822 7.18302C129.543 6.53 128.21 5.90419 126.877 5.30558C126.496 5.11512 126.088 4.92471 125.679 4.76145C124.727 4.32611 123.748 3.97239 122.768 3.56425C122.587 3.46823 122.396 3.39506 122.197 3.34652C121.517 3.04722 120.836 2.77516 120.129 2.53028C119.476 2.2854 118.823 2.04049 118.116 1.82281C119.53 2.09491 120.973 2.39425 122.36 2.80239L123.095 3.02001L123.013 2.96565L124.537 3.401L126.088 3.89073L129.108 4.9791L130.577 5.52331L132.074 6.12191C133.026 6.50284 134.005 6.93816 135.012 7.37351L136.509 8.05374L138.06 8.84283L140.971 10.3665L141.325 10.5569L141.76 10.8019L142.468 11.21L143.882 12.0262L145.352 12.9242C145.787 13.1691 146.304 13.5228 146.767 13.8221L148.181 14.7472L149.515 15.6723L152.181 17.6313L153.487 18.6109L154.82 19.672C155.664 20.325 156.507 21.0597 157.378 21.7672L157.433 21.8216L157.514 21.9304L157.677 22.0937L157.596 21.9848L160.97 25.0322L164.072 28.1884L167.119 31.508C168.126 32.678 169.078 33.7935 170.03 34.9635L170.085 35.0724L170.575 35.9975C170.493 35.715 170.364 35.4481 170.194 35.2084L170.275 35.29L172.316 38.0382L172.806 38.7456L173.377 39.5075L174.329 40.9223L175.282 42.3644C175.608 42.827 175.935 43.3712 176.207 43.8337L178.03 46.8267L178.084 46.9356C177.909 46.6866 177.688 46.4741 177.431 46.3097C177.241 46.2281 177.159 46.2009 177.105 46.1737L178.084 46.9356L178.112 46.99L178.193 47.0444L179.472 49.4388L180.071 50.6632C180.343 51.1802 180.506 51.5067 180.697 51.942L181.866 54.3909L182.411 55.6425L182.955 56.9757L183.961 59.5062C184.125 59.9143 184.315 60.4313 184.452 60.8394L184.859 62.1183C185.131 62.989 185.485 63.8869 185.676 64.7576L186.383 67.4241Z" fill="white"/>
</g>
</g>
<path d="M276.32 84V37.3594H259.836V27.6328H304.641V37.3594H288.117V84H276.32ZM311.164 84V27.6328H322.961V84H311.164ZM392.023 84H381.516V45.9531H381.203L365.891 83.4531H358.469L343.156 45.9531H342.844V84H332.336V27.6328H346.008L362.023 67.5938H362.336L378.352 27.6328H392.023V84ZM438.742 84H401.398V27.6328H438.742V37.3594H413.195V50.9531H437.297V60.0156H413.195V74.2344H438.742V84Z" fill="url(#paint5_linear)"/>
<path d="M271.906 135.945C272.167 138.237 273.391 140.099 275.578 141.531C277.74 142.938 280.396 143.641 283.547 143.641C286.672 143.641 289.224 142.964 291.203 141.609C293.156 140.281 294.133 138.576 294.133 136.492C294.133 134.669 293.404 133.198 291.945 132.078C290.487 130.958 288.052 130.021 284.641 129.266L277.297 127.664C266.958 125.451 261.789 120.203 261.789 111.922C261.789 106.766 263.807 102.586 267.844 99.3828C271.854 96.2318 277.023 94.6562 283.352 94.6562C289.862 94.6562 295.07 96.2057 298.977 99.3047C302.831 102.378 304.81 106.479 304.914 111.609H293.859C293.677 109.24 292.622 107.365 290.695 105.984C288.794 104.63 286.359 103.953 283.391 103.953C280.474 103.953 278.13 104.591 276.359 105.867C274.562 107.143 273.664 108.823 273.664 110.906C273.664 112.625 274.393 114.031 275.852 115.125C277.284 116.167 279.628 117.065 282.883 117.82L289.719 119.266C295.37 120.464 299.484 122.339 302.062 124.891C304.641 127.417 305.93 130.828 305.93 135.125C305.93 140.594 303.872 144.93 299.758 148.133C295.643 151.362 290.083 152.977 283.078 152.977C276.281 152.977 270.878 151.466 266.867 148.445C262.831 145.398 260.721 141.232 260.539 135.945H271.906ZM350.383 152V128.25H324.992V152H313.195V95.6328H324.992V118.523H350.383V95.6328H362.18V152H350.383ZM371.555 152V95.6328H383.352V152H371.555ZM392.727 152V95.6328H429.641V105.359H404.523V120.477H427.453V129.812H404.523V152H392.727ZM450.305 152V105.359H433.82V95.6328H478.625V105.359H462.102V152H450.305Z" fill="url(#paint6_linear)"/>
<path d="M275.114 204.513C270.394 204.513 266.626 202.861 263.811 199.557C261.011 196.236 259.611 191.777 259.611 186.178C259.611 180.693 261.011 176.339 263.811 173.116C266.61 169.877 270.378 168.258 275.114 168.258C278.695 168.258 281.804 169.381 284.44 171.627C287.077 173.889 288.583 176.697 288.957 180.05H287.028C286.654 177.218 285.327 174.841 283.049 172.921C280.786 171.017 278.142 170.064 275.114 170.064C270.98 170.064 267.692 171.513 265.251 174.41C262.81 177.307 261.589 181.23 261.589 186.178C261.589 191.223 262.818 195.243 265.275 198.238C267.717 201.217 270.996 202.706 275.114 202.706C278.239 202.706 280.909 201.852 283.122 200.143C285.352 198.417 286.654 196.155 287.028 193.355H288.957C288.55 196.692 287.077 199.386 284.538 201.437C281.983 203.487 278.841 204.513 275.114 204.513ZM307.683 168.258C312.484 168.258 316.301 169.894 319.133 173.165C321.965 176.437 323.381 180.839 323.381 186.373C323.381 191.939 321.965 196.35 319.133 199.605C316.317 202.877 312.5 204.513 307.683 204.513C302.865 204.513 299.048 202.877 296.232 199.605C293.4 196.35 291.984 191.939 291.984 186.373C291.984 180.839 293.4 176.437 296.232 173.165C299.064 169.894 302.881 168.258 307.683 168.258ZM307.683 170.064C303.5 170.064 300.163 171.537 297.673 174.483C295.199 177.413 293.962 181.376 293.962 186.373C293.962 191.354 295.207 195.325 297.697 198.287C300.171 201.233 303.5 202.706 307.683 202.706C311.866 202.706 315.202 201.233 317.692 198.287C320.166 195.341 321.403 191.37 321.403 186.373C321.403 181.376 320.166 177.413 317.692 174.483C315.202 171.537 311.866 170.064 307.683 170.064ZM330.07 187.203H339.519C342.465 187.203 344.776 186.463 346.452 184.981C348.129 183.5 348.967 181.466 348.967 178.878C348.967 176.257 348.12 174.207 346.428 172.726C344.751 171.261 342.432 170.528 339.47 170.528H330.07V187.203ZM330.07 204H328.142V168.771H339.641C343.124 168.771 345.882 169.674 347.917 171.48C349.935 173.271 350.944 175.72 350.944 178.829C350.944 181.368 350.228 183.5 348.796 185.226C347.347 186.967 345.345 188.09 342.79 188.595L351.848 204H349.577L340.764 188.888C340.454 188.937 340.039 188.961 339.519 188.961H330.07V204ZM367.668 168.771C371.102 168.771 373.845 169.731 375.896 171.651C377.963 173.556 378.996 176.103 378.996 179.293C378.996 182.467 377.963 185.014 375.896 186.935C373.828 188.839 371.086 189.791 367.668 189.791H358.146V204H356.218V168.771H367.668ZM358.146 188.033H367.351C370.329 188.033 372.681 187.252 374.406 185.689C376.148 184.127 377.019 181.995 377.019 179.293C377.019 176.575 376.156 174.435 374.431 172.872C372.689 171.31 370.329 170.528 367.351 170.528H358.146V188.033Z" fill="url(#paint7_linear)"/>
<defs>
<linearGradient id="paint0_linear" x1="118" y1="229.536" x2="118" y2="33.536" gradientUnits="userSpaceOnUse">
<stop/>
<stop offset="1" stop-color="#5A5A5A"/>
</linearGradient>
<linearGradient id="paint1_linear" x1="173.269" y1="195.85" x2="173.269" y2="22.5752" gradientUnits="userSpaceOnUse">
<stop/>
<stop offset="1" stop-color="#5A5A5A"/>
</linearGradient>
<linearGradient id="paint2_linear" x1="136.659" y1="232.696" x2="136.659" y2="129.06" gradientUnits="userSpaceOnUse">
<stop/>
<stop offset="1" stop-color="#5A5A5A"/>
</linearGradient>
<linearGradient id="paint3_linear" x1="50.4594" y1="231.914" x2="50.4594" y2="66.0193" gradientUnits="userSpaceOnUse">
<stop/>
<stop offset="1" stop-color="#5A5A5A"/>
</linearGradient>
<linearGradient id="paint4_linear" x1="95.9531" y1="112.887" x2="95.9531" y2="13.0122" gradientUnits="userSpaceOnUse">
<stop/>
<stop offset="1" stop-color="#5A5A5A"/>
</linearGradient>
<linearGradient id="paint5_linear" x1="350.5" y1="101.955" x2="350.5" y2="18.83" gradientUnits="userSpaceOnUse">
<stop/>
<stop offset="1" stop-color="#5A5A5A"/>
</linearGradient>
<linearGradient id="paint6_linear" x1="369.5" y1="169.955" x2="369.5" y2="86.83" gradientUnits="userSpaceOnUse">
<stop/>
<stop offset="1" stop-color="#5A5A5A"/>
</linearGradient>
<linearGradient id="paint7_linear" x1="319.5" y1="215.34" x2="319.5" y2="162.84" gradientUnits="userSpaceOnUse">
<stop/>
<stop offset="1" stop-color="#5A5A5A"/>
</linearGradient>
</defs>
</svg>
